<svg id="Layer_1" data-name="Layer 1" xmlns="http://www.w3.org/2000/svg" xmlns:xlink="http://www.w3.org/1999/xlink" viewBox="0 0 561.26 136.06"><defs><style>.cls-1,.cls-2{fill-rule:evenodd;}.cls-1{fill:url(#linear-gradient);}.cls-2,.cls-3{fill:#030033;}</style><linearGradient id="linear-gradient" x1="52.14" y1="107.81" x2="98.69" y2="27.2" gradientUnits="userSpaceOnUse"><stop offset="0" stop-color="#420cff"/><stop offset="1" stop-color="#00eaf5"/></linearGradient></defs><title>Lagrange</title><path class="cls-1" d="M112.93,78h.23a2.88,2.88,0,0,1,.92.22h0a2.74,2.74,0,0,1,.7.41v0l.26.26a2.81,2.81,0,0,1,.65,1,2.9,2.9,0,0,1,.23,1.14h0a3,3,0,0,1-.23,1.15,3,3,0,0,1-.65,1h0a3.18,3.18,0,0,1-1,.65h0a3.14,3.14,0,0,1-1.15.23,3.09,3.09,0,0,1-1.14-.23h0a2.81,2.81,0,0,1-.81-.5h0l-.16-.16a3,3,0,0,1-.65-1,3,3,0,0,1-.23-1.15h0a2.9,2.9,0,0,1,.23-1.14,2.81,2.81,0,0,1,.65-1l.06-.07h0a2.84,2.84,0,0,1,.9-.58,2.9,2.9,0,0,1,1.14-.23Zm-27.88,29.4a3.2,3.2,0,0,1-.23-1.16V80.8a3.16,3.16,0,0,1,.23-1.16,3.07,3.07,0,0,1,.66-1h0a3.18,3.18,0,0,1,1-.66,3,3,0,0,1,1.16-.23h13.8a3,3,0,0,1,1.16.23,3.13,3.13,0,0,1,1,.66,2.91,2.91,0,0,1,.66,1,3,3,0,0,1-.65,3.3l-.07.07h0a2.91,2.91,0,0,1-.91.59h0a3,3,0,0,1-1.16.23H90.9v22.59h0a3.24,3.24,0,0,1-.22.93,3.13,3.13,0,0,1-.6.91h0l-.06.07a3.15,3.15,0,0,1-1,.65,3,3,0,0,1-2.32,0,3.15,3.15,0,0,1-1-.65l-.06-.07h0a3.13,3.13,0,0,1-.6-.91Zm0-79a3.13,3.13,0,0,1,.6-.91h0l.06-.06A3,3,0,0,1,89,26.67a3,3,0,0,1,.76.45v0l.23.23a3.13,3.13,0,0,1,.66,1,3.25,3.25,0,0,1,.23,1.17V51.83h10.76a3,3,0,0,1,2.14.89h0a3,3,0,0,1,.66,1,3.06,3.06,0,0,1-.65,3.31,3,3,0,0,1-2.15.89H87.86A3,3,0,0,1,85.71,57h0a3.13,3.13,0,0,1-.66-1,3.25,3.25,0,0,1-.23-1.17V29.48a3.25,3.25,0,0,1,.23-1.17Zm-18.14,0a3,3,0,0,1,.22.94h0V55.09h0a2.94,2.94,0,0,1-.22.94,3,3,0,0,1-.66,1h0a3,3,0,0,1-2.14.89H50.31A3,3,0,0,1,48.16,57h0a3.13,3.13,0,0,1-.66-1,3.31,3.31,0,0,1-.22-.94h0v-.23a3,3,0,0,1,.23-1.16,3.08,3.08,0,0,1,.51-.81h0l.16-.16a3,3,0,0,1,2.15-.89H61.07V29.48a3.05,3.05,0,0,1,.23-1.17,3,3,0,0,1,.66-1h0a3,3,0,0,1,1-.66,3.05,3.05,0,0,1,1.17-.23,3,3,0,0,1,2.14.89h0a3,3,0,0,1,.66,1Zm0,79a3,3,0,0,1-.66,1h0a3,3,0,0,1-2.14.89h0a3,3,0,0,1-1.16-.23,3.11,3.11,0,0,1-1-.65,3,3,0,0,1-.89-2.15V106h0V83.83H50.31a3,3,0,0,1-1.16-.23h0a3.08,3.08,0,0,1-.92-.59h0l-.07-.07a3,3,0,0,1-.89-2.14,3,3,0,0,1,.23-1.16h0a3.07,3.07,0,0,1,.66-1,3.18,3.18,0,0,1,1-.66,3,3,0,0,1,1.16-.23h13.8a3,3,0,0,1,1.16.23,3.13,3.13,0,0,1,1,.66h0a3,3,0,0,1,.89,2.15v25.39a3,3,0,0,1-.23,1.16ZM53.21,91a3,3,0,0,1,1,.65,3,3,0,0,1,.65,1h0a3.08,3.08,0,0,1,.22,1.14,3.14,3.14,0,0,1-.22,1.15h0a3.16,3.16,0,0,1-.58.9h0l-.07.07a3.18,3.18,0,0,1-1,.65h0a3,3,0,0,1-1.15.23h-.23a3,3,0,0,1-.91-.22h0a3,3,0,0,1-1-.65,3.21,3.21,0,0,1-.66-1,3.14,3.14,0,0,1-.22-1.15,3.08,3.08,0,0,1,.22-1.14,3,3,0,0,1,.66-1,2.81,2.81,0,0,1,1-.65h0a2.9,2.9,0,0,1,1.14-.23,3,3,0,0,1,1.15.23Zm-.77-51.61a2.81,2.81,0,0,1,1,.65h0a2.81,2.81,0,0,1,.65,1,2.9,2.9,0,0,1,.23,1.14,3,3,0,0,1-.23,1.15h0a3,3,0,0,1-.65,1h0a3,3,0,0,1-1,.65,3,3,0,0,1-2.29,0h0a3,3,0,0,1-1-.65h0a3,3,0,0,1-.65-1,3,3,0,0,1-.23-1.15A2.9,2.9,0,0,1,48.53,41a2.81,2.81,0,0,1,.65-1h0a3,3,0,0,1,1-.65h0a3,3,0,0,1,1.15-.23,2.9,2.9,0,0,1,1.14.23ZM34.35,65.07A3,3,0,0,1,36.5,66h0a3.18,3.18,0,0,1,.66,1h0a3,3,0,0,1-.66,3.31l-.07.06h0a3.08,3.08,0,0,1-.92.59,3,3,0,0,1-1.16.23h-9a3,3,0,0,1-1.16-.23,3.11,3.11,0,0,1-1-.65L22.94,70h0a3.23,3.23,0,0,1-.42-.72h0a3,3,0,0,1,0-2.32,2.91,2.91,0,0,1,.66-1l.06-.07h0a3.1,3.1,0,0,1,.91-.59,3,3,0,0,1,1.16-.23ZM73.17,79.64a3.07,3.07,0,0,1,.66-1h0a3.18,3.18,0,0,1,1-.66,3,3,0,0,1,2.32,0,3.08,3.08,0,0,1,.92.59h0l.07.07a3.07,3.07,0,0,1,.66,1A3.16,3.16,0,0,1,79,80.8v7.09a3.2,3.2,0,0,1-.23,1.16,3,3,0,0,1-.66,1l-.07.07h0a3.08,3.08,0,0,1-.92.59h0a3,3,0,0,1-1.16.24h-.23A3.18,3.18,0,0,1,73.83,90h0a3,3,0,0,1-.66-1,3.2,3.2,0,0,1-.23-1.16V80.8a3.16,3.16,0,0,1,.23-1.16Zm0-23.62a3.16,3.16,0,0,1-.23-1.16V47.77a3.24,3.24,0,0,1,.23-1.16,3.13,3.13,0,0,1,.66-1,3,3,0,0,1,1-.66h0a2.88,2.88,0,0,1,.93-.22H76a3,3,0,0,1,1.16.23h0a3.08,3.08,0,0,1,.92.59h0l.07.07a3.13,3.13,0,0,1,.66,1A3.2,3.2,0,0,1,79,47.77v7.09A3,3,0,0,1,78.13,57l-.07.07h0a3.08,3.08,0,0,1-.92.59A3,3,0,0,1,73.83,57h0a3.07,3.07,0,0,1-.66-1ZM99.9,38.94a3,3,0,0,1,2.12.87h0a3.11,3.11,0,0,1,.65,1h0a2.94,2.94,0,0,1,0,2.28,3,3,0,0,1-.65,1l-.16.16h0a3.16,3.16,0,0,1-.8.5h0a3.14,3.14,0,0,1-1.15.22,3,3,0,0,1-2.11-.87,3,3,0,0,1-.65-1h0a2.94,2.94,0,0,1,0-2.28,3,3,0,0,1,.65-1h0a3.12,3.12,0,0,1,1-.65,3.08,3.08,0,0,1,1.14-.22Zm1.15,52a3,3,0,0,1,1,.65,2.81,2.81,0,0,1,.65,1,2.9,2.9,0,0,1,.23,1.14V94h0a3.17,3.17,0,0,1-.22.92h0a3.16,3.16,0,0,1-.58.9h0l-.07.07a3.06,3.06,0,0,1-1,.65,3.14,3.14,0,0,1-1.15.22,3.08,3.08,0,0,1-1.14-.22,3,3,0,0,1-1-.65l-.17-.16h0a3.13,3.13,0,0,1-.49-.8h0a3,3,0,0,1-.23-1.15,2.9,2.9,0,0,1,.23-1.14,2.81,2.81,0,0,1,.65-1h0a2.81,2.81,0,0,1,1-.65,2.9,2.9,0,0,1,1.14-.23,3,3,0,0,1,1.15.23ZM126,65.3a3.13,3.13,0,0,1,1,.66L127,66h0a3.08,3.08,0,0,1,.59.92,3,3,0,0,1-.66,3.31,3.11,3.11,0,0,1-1,.65,3.05,3.05,0,0,1-1.17.23H117.7a3,3,0,0,1-1.16-.23,3,3,0,0,1-1-.65h0A3,3,0,0,1,114.9,67a3.08,3.08,0,0,1,.59-.92h0l.07-.07a3.13,3.13,0,0,1,1-.66,3,3,0,0,1,1.16-.23h7.09a3,3,0,0,1,1.17.23Zm-48.84,0a3,3,0,0,1,1,.65h0a3.18,3.18,0,0,1,.65,1A3.14,3.14,0,0,1,79,68.11v.23h0a3,3,0,0,1-.21.91h0a3.12,3.12,0,0,1-.65,1h0a3.08,3.08,0,0,1-1,.64,2.94,2.94,0,0,1-2.28,0h0a3,3,0,0,1-.86-.53h0l-.12-.12a3,3,0,0,1-.65-1A3.08,3.08,0,0,1,73,68.11,3.14,3.14,0,0,1,73.21,67h0a3.37,3.37,0,0,1,.65-1,3.11,3.11,0,0,1,1-.65h0A3,3,0,0,1,76,65.12a3.08,3.08,0,0,1,1.14.22ZM40.18,52a3.37,3.37,0,0,1,1,.65,3.11,3.11,0,0,1,.65,1h0a3.06,3.06,0,0,1,0,2.28h0a3.11,3.11,0,0,1-.65,1h0a3.37,3.37,0,0,1-1,.65,3.14,3.14,0,0,1-1.15.22,3.08,3.08,0,0,1-1.14-.22h0a3.28,3.28,0,0,1-.84-.52h0l-.14-.13a3.08,3.08,0,0,1-.64-1A2.9,2.9,0,0,1,36,54.72h0a3,3,0,0,1,.23-1.15,3.15,3.15,0,0,1,.64-1h0a3.12,3.12,0,0,1,1-.65,3,3,0,0,1,.91-.22h.46a3.17,3.17,0,0,1,.92.22ZM52.74,71.14H45.65a3,3,0,0,1-1.16-.23,2.91,2.91,0,0,1-.91-.59h0l-.06-.06A3,3,0,0,1,42.85,67h0a3,3,0,0,1,.66-1h0a3.13,3.13,0,0,1,1-.66,3,3,0,0,1,1.16-.23H64.43a3.05,3.05,0,0,1,1.17.23,3.13,3.13,0,0,1,1,.66l.07.07h0a3.08,3.08,0,0,1,.59.92h0a3,3,0,0,1,.23,1.16v.23h0a2.94,2.94,0,0,1-.22.93,3,3,0,0,1-.66,1h0a3,3,0,0,1-1,.65,3,3,0,0,1-1.16.23Zm-12.56,7a3,3,0,0,1,1,.65l.13.13h0a3.28,3.28,0,0,1,.52.84A3.08,3.08,0,0,1,42,80.94a3.14,3.14,0,0,1-.22,1.15h0a3.18,3.18,0,0,1-.65,1h0a3.18,3.18,0,0,1-1,.65,3.14,3.14,0,0,1-1.15.23,3.09,3.09,0,0,1-1.14-.23h0a3,3,0,0,1-1-.65,3.21,3.21,0,0,1-.66-1A3.14,3.14,0,0,1,36,80.94a3.08,3.08,0,0,1,.22-1.14,3.33,3.33,0,0,1,.5-.81h0l.17-.16a2.81,2.81,0,0,1,1-.65A2.9,2.9,0,0,1,39,78a3,3,0,0,1,1.15.23ZM79,103.31v14.76a3.2,3.2,0,0,1-.23,1.16h0a3.13,3.13,0,0,1-.66,1h0a3,3,0,0,1-3.31.66,3.15,3.15,0,0,1-1-.65h0a3,3,0,0,1-.89-2.14v-.23h0V99.29a3,3,0,0,1,.89-2.15h0a3.18,3.18,0,0,1,1-.66,3,3,0,0,1,2.32,0,3.18,3.18,0,0,1,1,.66l.19.2h0a3,3,0,0,1,.48.79h0A3.2,3.2,0,0,1,79,99.29v4Zm0-81.69v3.29h0V36.37a3.16,3.16,0,0,1-.23,1.16h0a3.13,3.13,0,0,1-.66,1h0a3,3,0,0,1-3.31.66,3.08,3.08,0,0,1-.92-.59h0l-.07-.07a3.13,3.13,0,0,1-.66-1A3.31,3.31,0,0,1,73,36.6h0V24.46h0V21.85h0V17.59h0a3,3,0,0,1,.83-2.07h0l.06-.06a3,3,0,0,1,3.31-.66h0a3,3,0,0,1,1,.66h0a3.13,3.13,0,0,1,.66,1h0a3.23,3.23,0,0,1,.22.94h0v4.25ZM94.61,71.14H87.52a3,3,0,0,1-1.16-.23,3.11,3.11,0,0,1-1-.65h0A3,3,0,0,1,85.31,66h0l.07-.07a3.13,3.13,0,0,1,1-.66,3,3,0,0,1,1.16-.23H106.3a3.05,3.05,0,0,1,1.17.23,3.13,3.13,0,0,1,1,.66h0a3,3,0,0,1,0,4.3l-.06.06h0a2.91,2.91,0,0,1-.91.59,3.05,3.05,0,0,1-1.17.23Zm18.32-19.41h0a3.14,3.14,0,0,1,1.15.22,3.18,3.18,0,0,1,.77.47h0l.2.19a3,3,0,0,1,.65,1,2.9,2.9,0,0,1,.23,1.14V55h0a3,3,0,0,1-.22.91h0a3,3,0,0,1-.65,1h0a3.37,3.37,0,0,1-1,.65h0a3.14,3.14,0,0,1-1.15.22,3.08,3.08,0,0,1-1.14-.22h0A3.07,3.07,0,0,1,111,57h0l-.13-.13a3,3,0,0,1-.65-1,2.9,2.9,0,0,1-.23-1.14h0a2.9,2.9,0,0,1,.23-1.14h0a3.13,3.13,0,0,1,.49-.8h0l.16-.16a3.12,3.12,0,0,1,1-.65,3.08,3.08,0,0,1,1.14-.22Z"/><path class="cls-2" d="M473,50.11H442.47a3,3,0,0,0-2.74,2.72V83a3,3,0,0,0,2.53,2.56h30.89c3,0,4-6-1-6H445.87V70.84h21.91c3.25,0,4.34-6-.77-6H445.87V56.14h26.81a2.18,2.18,0,0,0,.5,0c3.77-.8,2.79-6-.19-6Zm-146.6,1.63L313.65,76.9l0,0c-.88,1.66-1.56,3-2,4.06-.69,1.55-.88,3.19.91,4.22a2.87,2.87,0,0,0,4-1.23c.49-.93,1.39-2.7,2.72-5.33,3.24-6.43,6.31-13.18,9.78-19.45,3.47,6.27,6.53,13,9.78,19.45,1.32,2.63,2.23,4.4,2.72,5.33a2.87,2.87,0,0,0,3.95,1.23c1.78-1,1.59-2.67.91-4.22q-.7-1.58-2-4.06l-.06,0L331.69,52.09c-.59-1.16-1.19-2-2.69-2a2.73,2.73,0,0,0-2.61,1.67Zm103-1.63H413.79a16.46,16.46,0,0,0-6.39,1.28,21,21,0,0,0-6,3.9,21.07,21.07,0,0,0-4,5.8,14.77,14.77,0,0,0-1.3,6v1.44a13.52,13.52,0,0,0,.46,3.47,18.28,18.28,0,0,0,1.44,3.73l.09.19a7.73,7.73,0,0,0,1.18,1.94,30.86,30.86,0,0,0,2.64,3,22.13,22.13,0,0,0,5.68,3.51,14.82,14.82,0,0,0,5.65,1.15h16.28A3.08,3.08,0,0,0,432,83.15v-15c0-3.2-4.18-4-5.64-1.52a4.55,4.55,0,0,0-.5,2.29V79.5H415.35a13.67,13.67,0,0,1-2.48-.24,17.83,17.83,0,0,1-2.58-.71l-.16-.07c-5.22-2.41-7.83-6-7.83-10.58a11.26,11.26,0,0,1,.28-2.43,12.15,12.15,0,0,1,.82-2.35l.09-.16q4.08-6.81,12.48-6.82h13.14c4.1,0,3.56-6,.31-6Zm-285,2.72V83a3,3,0,0,0,2.53,2.56H177.8a.93.93,0,0,0,.24,0c3.29-.86,3.05-6-1.25-6H150.52V53.21c0-4.26-6.14-3.9-6.14-.38Zm58.06-1.08L189.7,76.91l0,0c-.89,1.66-1.56,3-2,4.06-.68,1.56-.87,3.19.91,4.22a2.86,2.86,0,0,0,4-1.23c.48-.92,1.39-2.7,2.71-5.32,3.25-6.43,6.31-13.18,9.78-19.46,3.48,6.28,6.54,13,9.78,19.46,1.33,2.62,2.23,4.4,2.72,5.32a2.85,2.85,0,0,0,4,1.23c1.79-1,1.6-2.66.91-4.22-.46-1-1.14-2.4-2-4.06l0,0-12.56-24.8c-.59-1.17-1.2-2-2.69-2a2.75,2.75,0,0,0-2.61,1.67Zm57-1.64H243.79a16.46,16.46,0,0,0-6.39,1.28,21,21,0,0,0-6,3.9,21.07,21.07,0,0,0-4,5.8,14.77,14.77,0,0,0-1.3,6v1.44a13.52,13.52,0,0,0,.46,3.47,18.28,18.28,0,0,0,1.44,3.73l.09.19a7.73,7.73,0,0,0,1.18,1.94,30.86,30.86,0,0,0,2.64,3,22.13,22.13,0,0,0,5.68,3.51,14.82,14.82,0,0,0,5.65,1.15h16.28A3.08,3.08,0,0,0,262,83.15v-15c0-3.2-4.18-4-5.64-1.52a4.55,4.55,0,0,0-.5,2.29V79.5H245.35a13.67,13.67,0,0,1-2.48-.24,17.83,17.83,0,0,1-2.58-.71l-.16-.07c-5.22-2.41-7.83-6-7.83-10.58a11.26,11.26,0,0,1,.28-2.43,12.15,12.15,0,0,1,.82-2.35l.09-.16q4.08-6.81,12.48-6.82h13.14c4.1,0,3.56-6,.31-6Zm35.78,0H272.59c-2.08,0-3.41,1-3.41,3.24V83c0,3.35,6.14,3.62,6.14-.3V70.84h8.78c3,2.8,6,5.57,9,8.33,1.74,1.59,3.36,3.07,5,4.68a7,7,0,0,0,2.19,1.6A3.45,3.45,0,0,0,304,84.2a2.65,2.65,0,0,0,.49-1.6,3.07,3.07,0,0,0-1.14-2.28c-.56-.56-1.27-1.25-2.12-2-1.34-1.26-3-2.76-4.93-4.47l-3-3H295c13.23,0,13.14-20.73.18-20.73Zm-19.39,5.24H294a5.13,5.13,0,0,1,5.11,5.11h0A5.13,5.13,0,0,1,294,65.58H275.81a.51.51,0,0,1-.5-.5V55.85a.5.5,0,0,1,.5-.5Zm80.92-5.24H356l-.25,0-.27,0c-1.48.64-2.22,1.52-2.22,2.65V83a1.22,1.22,0,0,0,0,.26h0c0,.12.07.26.12.4a4.62,4.62,0,0,0,1.21,1.51,1.92,1.92,0,0,0,1.17.39h1.26a4.35,4.35,0,0,0,1.84-1.23,2.45,2.45,0,0,0,.52-1.61v-22l3.11,3,19.14,18.7.11.12A14,14,0,0,0,384.31,85a2.66,2.66,0,0,0,1.3.58h1.09a1,1,0,0,0,.25,0l.36-.14a4.56,4.56,0,0,0,1.49-1.21,1.66,1.66,0,0,0,.34-1V52.58a1.35,1.35,0,0,0,0-.2h0c0-.13-.06-.28-.11-.43a4.5,4.5,0,0,0-1.22-1.44,2.12,2.12,0,0,0-1.24-.39h-.69a1.79,1.79,0,0,0-.34,0,2.05,2.05,0,0,0-.34.07,3.52,3.52,0,0,0-1.64,1.24,3.62,3.62,0,0,0-.53,2V74.77l-3.11-3c-2.12-2-4.87-4.73-8.25-8S364.31,56.54,359.73,52l-.09-.09a7.17,7.17,0,0,0-1.7-1.46,2.41,2.41,0,0,0-1.21-.37Z"/><path class="cls-3" d="M233.4,63.12l.09-.16q4.08-6.81,12.48-6.82h13.14c4.1,0,3.56-6,.31-6H243.79a16.46,16.46,0,0,0-6.39,1.28,21,21,0,0,0-6,3.9,21.07,21.07,0,0,0-4,5.8,14.77,14.77,0,0,0-1.3,6v1.44a13.52,13.52,0,0,0,.46,3.47,18.28,18.28,0,0,0,1.44,3.73l.09.19a7.73,7.73,0,0,0,1.18,1.94,30.86,30.86,0,0,0,2.64,3,22.13,22.13,0,0,0,5.68,3.51,14.82,14.82,0,0,0,5.65,1.15h16.28A3.08,3.08,0,0,0,262,83.15v-15c0-3.2-4.18-4-5.64-1.52a4.55,4.55,0,0,0-.5,2.29V79.5H245.35a13.67,13.67,0,0,1-2.48-.24,17.83,17.83,0,0,1-2.58-.71l-.16-.07c-5.22-2.41-7.83-6-7.83-10.58a11.26,11.26,0,0,1,.28-2.43A12.15,12.15,0,0,1,233.4,63.12Z"/><path class="cls-3" d="M295.2,50.11H272.59c-2.08,0-3.41,1-3.41,3.24V83c0,3.35,6.14,3.62,6.14-.3V70.84h8.78c3,2.8,6,5.57,9,8.33,1.74,1.59,3.36,3.07,5,4.68a7,7,0,0,0,2.19,1.6A3.45,3.45,0,0,0,304,84.2a2.65,2.65,0,0,0,.49-1.6,3.07,3.07,0,0,0-1.14-2.28c-.56-.56-1.27-1.25-2.12-2-1.34-1.26-3-2.76-4.93-4.47l-3-3H295C308.25,70.84,308.16,50.11,295.2,50.11ZM275.81,65.58a.51.51,0,0,1-.5-.5V55.85a.5.5,0,0,1,.5-.5H294a5.12,5.12,0,0,1,0,10.23Z"/><path class="cls-3" d="M220.35,76.94l0,0-12.56-24.8c-.59-1.17-1.2-2-2.69-2a2.75,2.75,0,0,0-2.61,1.67L189.7,76.91l0,0c-.89,1.66-1.56,3-2,4.06-.68,1.56-.87,3.19.91,4.22a2.86,2.86,0,0,0,4-1.23c.48-.92,1.39-2.7,2.71-5.32,3.25-6.43,6.31-13.18,9.78-19.46,3.48,6.28,6.54,13,9.78,19.46,1.33,2.62,2.23,4.4,2.72,5.32a2.85,2.85,0,0,0,4,1.23c1.79-1,1.6-2.66.91-4.22C221.91,80,221.23,78.6,220.35,76.94Z"/><path class="cls-3" d="M176.79,79.5H150.52V53.21c0-4.26-6.14-3.9-6.14-.38V83a3,3,0,0,0,2.53,2.56H177.8a.93.93,0,0,0,.24,0C181.33,84.65,181.09,79.5,176.79,79.5Z"/><path class="cls-3" d="M542.9,53.21c0-4.26-6.14-3.9-6.14-.38V83a2.53,2.53,0,0,0,2.52,2.53h1.1A2.53,2.53,0,0,0,542.91,83Z"/><path class="cls-3" d="M527.54,76.94l-.06,0-12.55-24.8c-.6-1.17-1.2-2-2.69-2a2.76,2.76,0,0,0-2.62,1.67L496.88,76.91l0,0c-.88,1.66-1.56,3-2,4.06-.68,1.56-.87,3.19.91,4.22A2.85,2.85,0,0,0,499.7,84c.49-.92,1.4-2.7,2.72-5.32,3.24-6.43,6.31-13.18,9.78-19.46,3.47,6.28,6.54,13,9.78,19.46,1.33,2.62,2.23,4.4,2.72,5.32a2.85,2.85,0,0,0,3.95,1.23c1.78-1,1.59-2.66.91-4.22C529.1,80,528.42,78.6,527.54,76.94Z"/><path class="cls-3" d="M472.68,56.14a2.18,2.18,0,0,0,.5,0c3.77-.8,2.79-6-.19-6H442.47a3,3,0,0,0-2.74,2.72V83a3,3,0,0,0,2.53,2.56h30.89c3,0,4-6-1-6H445.87V70.84h21.91c3.25,0,4.34-6-.77-6H445.87V56.14Z"/><path class="cls-3" d="M389.11,52.37c0-.13-.06-.28-.11-.43a4.5,4.5,0,0,0-1.22-1.44,2.12,2.12,0,0,0-1.24-.39h-.69a1.79,1.79,0,0,0-.34,0,2.05,2.05,0,0,0-.34.07,3.52,3.52,0,0,0-1.64,1.24,3.62,3.62,0,0,0-.53,2V74.77l-3.11-3c-2.12-2-4.87-4.73-8.25-8S364.31,56.54,359.73,52l-.09-.09a7.17,7.17,0,0,0-1.7-1.46,2.41,2.41,0,0,0-1.21-.37H356l-.25,0-.27,0c-1.48.64-2.22,1.52-2.22,2.65V83a1.22,1.22,0,0,0,0,.26h0c0,.12.07.26.12.4a4.62,4.62,0,0,0,1.21,1.51,1.92,1.92,0,0,0,1.17.39h1.26a4.35,4.35,0,0,0,1.84-1.23,2.45,2.45,0,0,0,.52-1.61v-22l3.11,3,19.14,18.7.11.12A14,14,0,0,0,384.31,85a2.66,2.66,0,0,0,1.3.58h1.09a1,1,0,0,0,.25,0l.36-.14a4.56,4.56,0,0,0,1.49-1.21,1.66,1.66,0,0,0,.34-1V52.58a1.35,1.35,0,0,0,0-.2Z"/><path class="cls-3" d="M344.31,76.93l-.06,0L331.69,52.09c-.59-1.16-1.19-2-2.69-2a2.73,2.73,0,0,0-2.61,1.67L313.65,76.9l0,0c-.88,1.66-1.56,3-2,4.06-.69,1.55-.88,3.19.91,4.22a2.87,2.87,0,0,0,4-1.23c.49-.93,1.39-2.7,2.72-5.33,3.24-6.43,6.31-13.18,9.78-19.45,3.47,6.27,6.53,13,9.78,19.45,1.32,2.63,2.23,4.4,2.72,5.33a2.87,2.87,0,0,0,3.95,1.23c1.78-1,1.59-2.67.91-4.22Q345.63,79.41,344.31,76.93Z"/><path class="cls-3" d="M403.4,63.12l.09-.16q4.08-6.81,12.48-6.82h13.14c4.1,0,3.56-6,.31-6H413.79a16.46,16.46,0,0,0-6.39,1.28,21,21,0,0,0-6,3.9,21.07,21.07,0,0,0-4,5.8,14.77,14.77,0,0,0-1.3,6v1.44a13.52,13.52,0,0,0,.46,3.47,18.28,18.28,0,0,0,1.44,3.73l.09.19a7.73,7.73,0,0,0,1.18,1.94,30.86,30.86,0,0,0,2.64,3,22.13,22.13,0,0,0,5.68,3.51,14.82,14.82,0,0,0,5.65,1.15h16.28A3.08,3.08,0,0,0,432,83.15v-15c0-3.2-4.18-4-5.64-1.52a4.55,4.55,0,0,0-.5,2.29V79.5H415.35a13.67,13.67,0,0,1-2.48-.24,17.83,17.83,0,0,1-2.58-.71l-.16-.07c-5.22-2.41-7.83-6-7.83-10.58a11.26,11.26,0,0,1,.28-2.43A12.15,12.15,0,0,1,403.4,63.12Z"/><circle class="cls-3" cx="484.8" cy="82.79" r="3.21"/></svg>