<?xml version="1.0" encoding="UTF-8"?>
<svg id="Layer_2" data-name="Layer 2" xmlns="http://www.w3.org/2000/svg" xmlns:xlink="http://www.w3.org/1999/xlink" viewBox="0 0 521.09 106.55">
  <defs>
    <style>
      .cls-1, .cls-2 {
        fill: #fff;
      }

      .cls-2, .cls-3 {
        fill-rule: evenodd;
      }

      .cls-3 {
        fill: url(#linear-gradient);
      }
    </style>
    <linearGradient id="linear-gradient" x1="29.84" y1="93.26" x2="76.38" y2="12.64" gradientUnits="userSpaceOnUse">
      <stop offset="0" stop-color="#420cff"/>
      <stop offset="1" stop-color="#00eaf5"/>
    </linearGradient>
  </defs>
  <g id="Layer_1-2" data-name="Layer 1">
    <path class="cls-3" d="m90.63,63.39h.23c.32.04.63.11.92.23h0c.25.11.49.24.7.41v-.02s.27.26.27.26c.28.28.5.61.65.97.15.35.23.74.23,1.14h0c0,.4-.08.79-.23,1.14-.15.37-.37.7-.65.97h0c-.28.28-.61.5-.97.65h0c-.35.15-.74.23-1.14.23s-.79-.08-1.14-.23h0c-.3-.12-.57-.29-.8-.49h0s-.16-.16-.16-.16c-.27-.27-.5-.61-.65-.97-.15-.35-.23-.74-.23-1.14h0c0-.4.08-.79.23-1.15.15-.37.37-.7.65-.97l.07-.07h0c.26-.24.57-.44.9-.58.35-.15.74-.23,1.14-.23h0Zm-27.88,29.4c-.15-.36-.23-.75-.23-1.16v-25.39c0-.41.08-.8.23-1.16.15-.37.38-.71.66-.99h0c.28-.28.61-.5.99-.66.36-.15.75-.23,1.16-.23h13.8c.41,0,.8.08,1.16.23.37.15.71.38.99.66.28.28.5.61.66.99.15.36.23.75.23,1.16s-.08.8-.23,1.16c-.15.37-.38.71-.66.99l-.07.07h0c-.27.25-.58.45-.92.59h0c-.36.15-.75.23-1.16.23h-10.76v22.35s0,.23,0,.23h0c-.02.33-.1.64-.22.93-.14.34-.34.65-.59.92h0s-.07.07-.07.07c-.28.28-.61.5-.99.66-.36.15-.75.23-1.16.23s-.8-.08-1.16-.23c-.37-.15-.71-.38-.99-.66l-.07-.07h0c-.25-.27-.45-.58-.59-.92h0Zm0-79.03c.14-.34.34-.65.59-.92h0s.07-.07.07-.07c.28-.28.61-.5.99-.66.36-.15.75-.23,1.16-.23s.8.08,1.16.23c.27.11.53.27.76.45v-.02s.23.22.23.22c.28.28.5.61.66.99.15.36.23.75.23,1.16v22.35h10.76c.41,0,.8.08,1.16.23.37.15.71.38.99.66h0c.28.28.5.61.66.99.15.36.23.75.23,1.16,0,.84-.34,1.6-.89,2.15-.28.28-.61.5-.99.66-.36.15-.75.23-1.16.23h-13.8c-.41,0-.8-.08-1.16-.23-.37-.15-.71-.38-.99-.66h0s0,0,0,0c-.28-.28-.5-.61-.66-.99-.15-.36-.23-.75-.23-1.16V14.92c0-.41.08-.8.23-1.16h0Zm-18.14,0c.12.29.2.6.22.93h0v25.62s0,.23,0,.23h0c-.02.33-.1.64-.22.93-.15.37-.38.71-.66.99h0s0,0,0,0c-.28.28-.61.5-.99.66-.36.15-.75.23-1.16.23h-13.8c-.84,0-1.6-.34-2.15-.89h0c-.28-.28-.5-.61-.66-.99-.12-.29-.2-.6-.22-.93h-.01v-.23c0-.41.08-.8.23-1.16.12-.3.3-.58.5-.82h0s.16-.17.16-.17c.28-.28.61-.5.99-.66.36-.15.75-.23,1.16-.23h10.76V14.92c0-.41.08-.8.23-1.16.15-.37.38-.71.66-.99h0c.28-.28.61-.51.99-.66.36-.15.75-.23,1.16-.23s.8.08,1.16.23c.37.15.71.38.99.66h0c.28.28.5.61.66.99h0Zm0,79.03c-.15.37-.38.71-.66.99h0c-.28.28-.61.5-.99.66-.36.15-.75.23-1.16.23h0c-.41,0-.8-.08-1.16-.23-.37-.15-.71-.38-.99-.66-.28-.28-.51-.62-.66-.99-.15-.36-.23-.75-.23-1.16v-.23h0v-22.12h-10.76c-.41,0-.8-.08-1.16-.23h0c-.34-.14-.65-.34-.92-.59h0l-.07-.07c-.28-.28-.5-.61-.66-.99-.15-.36-.23-.75-.23-1.16s.08-.8.23-1.16h0c.15-.37.38-.71.66-.99s.61-.5.99-.66c.36-.15.75-.23,1.16-.23h13.8c.41,0,.8.08,1.16.23.37.15.71.38.99.66h0c.28.28.5.62.66.99.15.36.23.75.23,1.16v25.39c0,.41-.08.8-.23,1.16h0Zm-13.7-16.38c.37.15.7.37.97.65.28.27.5.61.65.97h0c.15.35.23.74.23,1.14s-.08.79-.23,1.14h0c-.14.34-.34.64-.58.9h0s-.07.07-.07.07c-.27.27-.6.5-.97.65h0c-.35.15-.74.23-1.15.23h-.23c-.32-.03-.63-.11-.92-.23h0c-.37-.15-.7-.37-.97-.65-.28-.28-.5-.61-.65-.97-.15-.35-.23-.74-.23-1.14s.08-.79.23-1.14c.15-.37.38-.7.65-.97.28-.28.61-.5.97-.65h0c.35-.15.74-.23,1.14-.23s.79.08,1.14.23h0Zm-.77-51.61c.37.15.7.37.97.65h0c.27.28.5.61.65.97.15.35.23.74.23,1.14s-.08.79-.23,1.14h0c-.15.37-.37.7-.65.97h0c-.28.27-.61.5-.97.65-.35.15-.74.23-1.14.23s-.79-.08-1.14-.23h0c-.37-.15-.7-.37-.97-.65h0c-.28-.28-.5-.61-.65-.97-.15-.35-.23-.74-.23-1.14s.08-.79.23-1.14c.15-.37.37-.7.65-.97h0c.28-.28.61-.5.97-.65h0c.35-.15.74-.23,1.14-.23s.79.08,1.14.23h0Zm-18.09,25.71c.84,0,1.6.34,2.15.89h0c.28.28.51.62.66.99h0c.15.36.23.75.23,1.16s-.08.8-.23,1.16c-.15.37-.38.71-.66.99l-.07.07h0c-.26.25-.57.45-.92.59-.36.15-.75.23-1.16.23H3.04c-.41,0-.8-.08-1.16-.23-.37-.15-.71-.38-.99-.66l-.26-.26h.02c-.17-.22-.31-.47-.42-.73H.23c-.15-.36-.23-.75-.23-1.16s.08-.8.23-1.16c.15-.37.38-.71.66-.99l.07-.07h0c.26-.25.57-.45.92-.59.36-.15.75-.23,1.16-.23h9.01Zm38.82,14.56c.15-.37.38-.71.66-.99h0c.28-.28.61-.5.99-.66.36-.15.75-.23,1.16-.23s.8.08,1.16.23c.34.14.65.34.92.59h0l.07.07c.28.28.5.61.66.99.15.36.23.75.23,1.16v7.09c0,.41-.08.8-.23,1.16-.15.37-.38.71-.66.99l-.07.07h0c-.26.25-.58.45-.92.59h0c-.36.15-.75.23-1.16.23h-.23c-.33-.04-.64-.11-.93-.23-.37-.15-.71-.38-.99-.66h0c-.28-.28-.51-.61-.66-.99-.15-.36-.23-.75-.23-1.16v-7.09c0-.41.08-.8.23-1.16h0Zm0-23.61c-.15-.36-.23-.75-.23-1.16v-7.09c0-.41.08-.8.23-1.16.15-.37.38-.71.66-.99.28-.28.61-.5.99-.66h0c.29-.12.6-.2.93-.22h0s.23-.01.23-.01c.41,0,.8.08,1.16.23h0c.34.14.65.34.92.59h0l.07.07c.28.28.5.61.66.99.15.36.23.75.23,1.16v7.09c0,.84-.34,1.6-.89,2.15l-.07.07h0c-.26.25-.57.45-.92.59-.36.15-.75.23-1.16.23s-.8-.08-1.16-.23c-.37-.15-.71-.38-.99-.66h0c-.28-.28-.5-.61-.66-.99h0Zm26.73-17.09c.83,0,1.57.34,2.12.88h0c.28.28.5.61.65.97h0c.15.35.23.74.23,1.15s-.08.79-.23,1.14c-.15.37-.37.7-.65.97l-.16.16h0c-.24.2-.51.37-.8.49h0c-.35.15-.74.23-1.14.23-.83,0-1.57-.34-2.12-.88-.28-.28-.5-.61-.65-.97h0c-.15-.35-.23-.74-.23-1.14s.08-.79.23-1.14c.15-.37.37-.7.65-.97h0c.28-.28.61-.5.97-.65.35-.15.74-.23,1.14-.23h0Zm1.14,52.03c.37.15.7.37.97.65.28.28.5.61.65.97.15.35.23.74.23,1.14v.23h-.01c-.02.32-.1.63-.22.92h0c-.14.34-.34.64-.58.9h0s-.07.07-.07.07c-.27.27-.6.5-.97.65-.35.15-.74.23-1.14.23s-.79-.08-1.14-.23c-.37-.15-.7-.37-.97-.65l-.16-.16h0c-.2-.25-.37-.52-.49-.81h0c-.15-.35-.23-.74-.23-1.14s.08-.79.23-1.14c.15-.37.37-.7.65-.97h0c.28-.28.61-.5.97-.65.35-.15.74-.23,1.14-.23s.79.08,1.14.23h0Zm24.91-25.66c.37.15.71.38.99.66l.07.07h0c.25.27.45.58.59.92.15.36.23.75.23,1.16s-.08.8-.23,1.16c-.15.37-.38.71-.66.99-.28.28-.61.5-.99.66-.36.15-.75.23-1.16.23h-7.09c-.41,0-.8-.08-1.16-.23-.37-.15-.71-.38-.98-.66h0s0,0,0,0h0c-.28-.28-.51-.61-.66-.99-.15-.36-.23-.75-.23-1.16s.08-.8.23-1.16c.14-.34.34-.65.59-.92h0s.07-.07.07-.07c.28-.28.61-.5.99-.66.36-.15.75-.23,1.16-.23h7.09c.41,0,.8.08,1.16.23h0Zm-48.83.04c.37.15.7.37.97.65h0c.28.28.5.61.65.97.15.35.23.74.23,1.14v.23h-.01c-.02.32-.1.63-.22.92h0c-.15.37-.37.7-.65.97h0c-.27.28-.6.5-.97.65-.35.15-.74.23-1.14.23s-.79-.08-1.14-.23h0c-.31-.13-.6-.31-.85-.54h0s-.12-.11-.12-.11c-.27-.27-.5-.61-.65-.97-.15-.35-.23-.74-.23-1.14s.08-.79.23-1.14h0c.15-.37.37-.7.65-.97.28-.28.6-.5.97-.65h0c.35-.15.74-.23,1.14-.23s.79.08,1.14.23h0Zm-36.95-13.39c.37.15.7.37.97.65.27.27.5.6.65.97h0c.15.35.23.74.23,1.14s-.08.79-.23,1.14h0c-.15.37-.37.7-.65.97h0c-.28.28-.61.5-.97.65-.35.15-.74.23-1.14.23s-.79-.08-1.14-.23h0c-.31-.13-.59-.3-.83-.52h0s-.13-.13-.13-.13c-.27-.28-.5-.61-.65-.97-.15-.35-.23-.74-.23-1.14h0c0-.4.08-.79.23-1.15.15-.37.37-.7.65-.97h0c.28-.28.61-.5.97-.65.29-.12.59-.19.92-.22h0s.21,0,.21,0h.25c.32.03.63.11.92.23h0Zm12.57,19.19h-7.09c-.41,0-.8-.08-1.16-.23-.34-.14-.65-.34-.92-.59h0l-.07-.07c-.28-.28-.5-.61-.66-.99-.15-.36-.23-.75-.23-1.16s.08-.8.23-1.16h0c.15-.37.38-.71.66-.99h0c.28-.28.61-.5.99-.66.36-.15.75-.23,1.16-.23h18.78c.41,0,.8.08,1.16.23.37.15.71.38.99.66l.07.07h0c.25.27.45.58.59.92h0c.15.36.23.75.23,1.16v.23h-.01c-.02.33-.1.64-.22.93-.15.37-.38.71-.66.99h0c-.28.28-.61.5-.99.66-.36.15-.75.23-1.16.23h-11.69Zm-12.57,7.03c.37.15.7.37.97.65l.13.13h0c.22.25.39.53.52.84.15.35.23.74.23,1.14s-.08.79-.23,1.14h0c-.15.37-.37.7-.65.97h0c-.28.28-.61.5-.97.65-.35.15-.74.23-1.14.23s-.79-.08-1.14-.23h0c-.37-.15-.7-.37-.97-.65-.28-.28-.5-.61-.65-.97-.15-.35-.23-.74-.23-1.14s.08-.79.23-1.14c.12-.29.29-.57.5-.8h0s.16-.17.16-.17c.28-.27.61-.5.97-.65.35-.15.74-.23,1.14-.23s.79.08,1.14.23h0Zm38.84,25.14v14.75c0,.41-.08.8-.23,1.16h0c-.15.37-.38.71-.66.98h0c-.28.28-.61.51-.99.66-.36.15-.75.23-1.16.23s-.8-.08-1.16-.23c-.37-.15-.71-.38-.99-.66h0c-.28-.28-.5-.62-.66-.99-.15-.36-.23-.75-.23-1.16v-.23h0v-18.55c0-.41.08-.8.23-1.16.15-.37.38-.71.66-.99h0c.28-.28.61-.51.99-.66.36-.15.75-.23,1.16-.23s.8.08,1.16.23c.37.15.71.38.99.66l.2.2h-.01c.19.24.36.5.47.79h0c.15.36.23.75.23,1.16v4.03h0Zm0-81.69v3.06s0,.23,0,.23h0v11.46c0,.41-.08.8-.23,1.16h0c-.15.37-.38.71-.66.99h0c-.28.28-.61.51-.99.66-.36.15-.75.23-1.16.23s-.8-.08-1.16-.23c-.34-.14-.65-.34-.92-.59h0l-.07-.07c-.28-.28-.5-.61-.66-.99-.12-.29-.2-.61-.22-.93h0v-11.92s0-.23,0-.23h0v-2.61h0V3.04h0c0-.8.31-1.53.82-2.08h0s.07-.07.07-.07c.28-.28.61-.5.99-.66.36-.15.75-.23,1.16-.23s.8.08,1.16.23h0c.37.15.7.38.98.66h0c.28.28.51.61.66.99h0c.12.29.2.6.22.93h0v4.25h0Zm15.6,49.52h-7.09c-.41,0-.8-.08-1.16-.23-.37-.15-.71-.38-.99-.66h0c-.28-.28-.5-.61-.66-.99-.15-.36-.23-.75-.23-1.16,0-.8.31-1.53.82-2.08h0s.07-.07.07-.07c.28-.28.61-.5.99-.66.36-.15.75-.23,1.16-.23h18.78c.41,0,.8.08,1.16.23.37.15.71.38.99.66h0c.28.28.5.61.66.99.15.36.23.75.23,1.16s-.08.8-.23,1.16c-.15.37-.38.71-.66.99l-.07.07h0c-.26.25-.57.45-.92.59-.36.15-.75.23-1.16.23h-11.69Zm18.32-19.42h0c.4,0,.79.08,1.14.23.28.12.54.27.77.46h0s.2.19.2.19c.28.28.5.61.65.97.15.35.23.74.23,1.14v.23h-.01c-.02.32-.1.63-.22.92h0c-.15.37-.37.7-.65.97h0c-.28.28-.61.5-.97.65h0c-.35.15-.74.23-1.14.23s-.79-.08-1.14-.23h0c-.31-.13-.59-.3-.83-.52h0s-.13-.13-.13-.13c-.27-.28-.5-.61-.65-.97-.15-.35-.23-.74-.23-1.14h0c0-.4.08-.79.23-1.14h0c.12-.29.29-.57.49-.8h0s.16-.17.16-.17c.28-.27.61-.5.97-.65.35-.15.74-.23,1.14-.23h0Z"/>
    <path class="cls-2" d="m450.68,35.55h-30.52c-1.28,0-2.74,1.4-2.74,2.71v30.15c0,1.1,1.38,2.56,2.53,2.56h30.89c2.96,0,3.96-6.03-1-6.03h-26.27v-8.66h21.9c3.25,0,4.35-6.03-.76-6.03h-21.14v-8.66h26.81c.16,0,.33-.02.49-.05,3.77-.8,2.79-5.98-.19-5.98h0Zm-146.6,1.63l-12.74,25.16-.02.04c-.88,1.66-1.56,3.01-2.02,4.06-.69,1.55-.87,3.19.91,4.22,1.42.82,3.21.2,3.95-1.23.49-.93,1.39-2.7,2.72-5.33,3.24-6.43,6.31-13.18,9.78-19.45,3.47,6.28,6.54,13.02,9.78,19.45,1.32,2.62,2.23,4.4,2.72,5.33.75,1.43,2.53,2.05,3.95,1.23,1.78-1.03,1.59-2.67.91-4.22-.46-1.05-1.14-2.4-2.02-4.06l-.06-.04-12.56-24.8c-.59-1.17-1.19-2.01-2.69-2.03-1.24-.02-2.08.62-2.61,1.67h0Zm103.03-1.63h-15.63c-2.22,0-4.35.43-6.39,1.28-2.06.86-4.05,2.16-5.97,3.9-1.77,1.89-3.09,3.82-3.97,5.8-.87,1.96-1.3,3.97-1.3,6.05v1.44c0,1.14.15,2.3.46,3.47.31,1.2.8,2.45,1.44,3.73l.09.19c.19.51.58,1.15,1.18,1.94.66.87,1.54,1.86,2.63,2.97,1.89,1.56,3.78,2.73,5.68,3.51,1.86.76,3.75,1.15,5.65,1.15h16.28c.94,0,2.44-1.36,2.44-2.39v-15.02c0-3.19-4.18-3.97-5.64-1.52-.34.57-.51,1.33-.51,2.29v10.6h-10.53c-.78,0-1.61-.08-2.47-.25-.84-.16-1.7-.4-2.58-.71l-.16-.06c-5.22-2.41-7.83-5.95-7.83-10.58,0-.81.09-1.62.28-2.43.18-.79.46-1.58.82-2.35l.09-.16c2.72-4.54,6.89-6.82,12.48-6.82h13.14c4.1,0,3.56-6.03.31-6.03h0Zm-285.04,2.71v30.15c0,1.1,1.38,2.56,2.53,2.56h30.89c.09,0,.17-.01.25-.03,3.28-.85,3.04-6-1.25-6h-26.27v-26.3c0-4.26-6.14-3.89-6.14-.38h0Zm58.06-1.07l-12.74,25.16-.02.04c-.88,1.66-1.56,3.01-2.02,4.06-.69,1.55-.88,3.19.91,4.22,1.42.82,3.21.2,3.95-1.23.49-.93,1.39-2.7,2.72-5.33,3.24-6.43,6.31-13.18,9.78-19.45,3.47,6.28,6.54,13.02,9.78,19.45,1.32,2.62,2.23,4.4,2.72,5.33.75,1.43,2.53,2.05,3.95,1.23,1.78-1.03,1.59-2.67.91-4.22-.46-1.05-1.14-2.4-2.02-4.06l-.06-.04-12.56-24.8c-.59-1.17-1.19-2.01-2.69-2.03-1.24-.02-2.08.62-2.61,1.67h0Zm56.98-1.64h-15.63c-2.22,0-4.35.43-6.39,1.28-2.06.86-4.05,2.16-5.97,3.9-1.77,1.89-3.09,3.82-3.97,5.8-.87,1.96-1.3,3.97-1.3,6.05v1.44c0,1.14.15,2.3.46,3.47.31,1.2.8,2.45,1.44,3.73l.09.19c.19.51.58,1.15,1.18,1.94.66.87,1.54,1.86,2.63,2.97,1.89,1.56,3.78,2.73,5.68,3.51,1.86.76,3.75,1.15,5.65,1.15h16.28c.94,0,2.44-1.36,2.44-2.39v-15.02c0-3.19-4.18-3.97-5.64-1.52-.34.57-.51,1.33-.51,2.29v10.6h-10.53c-.78,0-1.61-.08-2.47-.25-.84-.16-1.7-.4-2.58-.71l-.16-.06c-5.22-2.41-7.83-5.95-7.83-10.58,0-.81.09-1.62.28-2.43.18-.79.46-1.58.82-2.35l.09-.16c2.72-4.54,6.89-6.82,12.48-6.82h13.14c4.1,0,3.56-6.03.31-6.03h0Zm35.79,0h-22.61c-2.08,0-3.41.98-3.41,3.24v29.63c0,3.35,6.14,3.62,6.14-.3v-11.84h8.78c2.97,2.8,6.02,5.57,9.03,8.33,1.74,1.59,3.36,3.07,5.04,4.68.9.87,1.63,1.4,2.19,1.6,1.26.45,2.86-.2,3.65-1.25.33-.44.49-.97.49-1.6,0-1-.48-1.61-1.14-2.28-.56-.56-1.26-1.25-2.11-2.04-1.35-1.26-2.99-2.75-4.93-4.47l-3.04-2.96h1.74c13.23,0,13.14-20.73.19-20.73h0Zm-19.39,5.24h18.19c2.81,0,5.12,2.3,5.12,5.12h0c0,2.81-2.3,5.12-5.12,5.12h-18.19c-.27,0-.5-.22-.5-.5v-9.23c0-.27.22-.5.5-.5h0Zm80.92-5.24h-.71c-.08,0-.17,0-.25.02-.08.01-.17.03-.27.05-1.48.63-2.22,1.51-2.22,2.64v30.15c0,.08.01.17.03.26h0c.03.12.06.25.11.4.38.69.78,1.2,1.21,1.51.35.26.74.39,1.17.39h1.09s.05,0,.09,0h.08c.85-.35,1.47-.76,1.85-1.24.34-.43.51-.96.51-1.61v-21.99l3.11,3.04,19.14,18.7.11.12c.93,1.08,1.77,1.89,2.51,2.41.55.39.99.58,1.3.58h1.09c.09,0,.17-.01.25-.03.11-.03.23-.07.36-.13.69-.39,1.19-.79,1.49-1.21.23-.31.34-.65.34-1.01v-30.56s-.01-.11-.03-.21h0c-.03-.14-.07-.28-.11-.44-.38-.65-.79-1.13-1.22-1.43-.37-.26-.78-.39-1.24-.39h-.69c-.13,0-.24,0-.34.02-.11.02-.23.04-.35.07-.75.31-1.3.73-1.64,1.24-.35.52-.53,1.21-.53,2.06v21.27l-3.11-3.01c-2.12-2.05-4.87-4.73-8.25-8.04-3.36-3.29-7.33-7.18-11.91-11.69l-.09-.09c-.59-.66-1.16-1.15-1.7-1.46-.43-.25-.83-.37-1.21-.37h0Z"/>
    <path class="cls-2" d="m487.79,37.14l-12.74,25.16-.02.04c-.88,1.66-1.56,3.01-2.02,4.06-.69,1.55-.87,3.19.91,4.22,1.42.82,3.21.2,3.95-1.23.49-.93,1.39-2.7,2.72-5.33,3.24-6.43,6.31-13.18,9.78-19.45,3.47,6.28,6.54,13.02,9.78,19.45,1.32,2.62,2.23,4.4,2.72,5.33.75,1.43,2.53,2.05,3.95,1.23,1.78-1.03,1.59-2.67.91-4.22-.46-1.05-1.14-2.4-2.02-4.06l-.06-.04-12.56-24.8c-.59-1.17-1.19-2.01-2.69-2.03-1.24-.02-2.08.62-2.61,1.67h0Z"/>
    <rect class="cls-1" x="514.96" y="35.5" width="6.12" height="35.48" rx="2.9" ry="2.9"/>
    <circle class="cls-1" cx="462.92" cy="68.53" r="2.5"/>
  </g>
</svg>